<?xml version="1.0" encoding="utf-8"?>
<!-- Generator: Adobe Illustrator 23.0.1, SVG Export Plug-In . SVG Version: 6.00 Build 0)  -->
<svg version="1.1" id="Layer_1" xmlns="http://www.w3.org/2000/svg" xmlns:xlink="http://www.w3.org/1999/xlink" x="0px" y="0px"
	 viewBox="0 0 200 200" style="enable-background:new 0 0 200 200;" xml:space="preserve">
<style type="text/css">
	.st0{fill:#7DC36C;}
</style>
<path class="st0" d="M102.58,179.58c-0.91,0.68-16.44,7.26-30.67,1.59c-4.5-1.79-7.19-4.45-10.45-7.72
	c-13.14-13.22-22.94-39.07-24.53-64.06c-0.07-1.09,0.6-6.71,0.91-10.22c0.63-7.14,2.91-19.25,12.04-22.72
	c1.5-0.57,7.34-2.56,13.18,0c4.38,1.92,6.68,5.5,8.18,7.95C79.53,98,84.46,112.18,86,116.65c5.65,16.47,8.47,24.71,8.63,25.22
	c4.91,15.4,5.77,20.06,10,28.62c4.96,10.05,7.57,15.14,13.63,18.4c11.31,6.08,23.89,0.2,24.76-0.23c4.89-2.38,8.63-6,14.08-14.31
	c5.65-8.61,14.66-24.6,20.45-50.89c3.8-17.25,3.51-26.69,3.41-29.08c-0.42-10.16-0.76-18.59-6.59-27.03
	c-8.32-12.05-21.43-14.87-23.17-15.22c-12.99-2.58-23.07,2.85-27.49,5.22c-16.67,8.98-23.83,26.76-23.17,27.26
	c0.29,0.22,2.18-2.96,7.27-7.04c6.45-5.17,12.65-7.48,17.72-9.31c7.08-2.57,10.92-3.96,16.36-3.41c2.27,0.23,6.71,0.74,10.9,3.86
	c4.77,3.56,6.46,8.44,7.95,12.95c2.27,6.88,2.18,12.51,2.04,17.95c-0.2,8.17-1.54,14.04-3.41,22.26
	c-2.49,10.96-5.25,18.63-5.91,20.45c-2.29,6.28-4.78,10.93-9.77,20.22c-1.81,3.37-3.83,6.95-7.95,8.86c-0.9,0.41-4.13,1.91-7.5,0.91
	c-4.31-1.29-6.38-5.94-7.95-9.77c-5.61-13.64-8.41-24.99-8.41-24.99s-2.86-11.61-7.5-25.22c-3.68-10.79-6.47-18.97-12.27-28.62
	c-5.39-8.98-9.52-15.84-18.17-21.13c-2.68-1.63-10.56-6.3-21.58-6.13c-3.6,0.06-11.98,0.3-19.76,5.91
	c-7.34,5.29-10.13,12.45-12.27,18.17c-5.53,14.78-3.71,27.86-2.27,38.16c2.22,15.92,7.31,27.06,11.36,35.89
	c6.37,13.91,11.78,20.22,14.54,23.17c3.95,4.22,8.22,8.69,15.45,11.59c8.24,3.3,15.55,2.63,19.54,2.27c3.7-0.34,9.23-0.9,15.22-4.32
	C98,185.12,103.88,178.61,102.58,179.58z"/>
<path class="st0" d="M134.72,7.78c3.41,2.73,0.73,24.15-8.52,36.97c-8.71,12.08-18.23,15.67-30.84,19.25
	c-1.87-9.54-2.7-24,6.64-37.31C111.29,13.48,126.03,7.61,134.72,7.78z"/>
<path class="st0" d="M61.97,28.57c-4.69,1.18-8.97,7.13-7.84,11.24c1.62,5.87,12.94,3.27,25.05,12.61
	c7.18,5.54,9.99,11.71,11.07,11.07c1.24-0.72-1.76-9.15-6.3-16.53C81.25,42.58,71.19,26.26,61.97,28.57z"/>
</svg>
